<?xml version="1.0" encoding="utf-8"?>
<svg version="1.1" xmlns="http://www.w3.org/2000/svg" x="0px" y="0px" viewBox="0 0 254 148">
<g>
	<path fill="#6FCBDC" d="M127.3,132c-31.8,0-57.7-25.9-57.7-57.7s25.9-57.7,57.7-57.7c31.8,0,57.7,25.9,57.7,57.7 S159.1,132,127.3,132z M127.3,32.6c-23,0-41.7,18.7-41.7,41.7c0,23,18.7,41.7,41.7,41.7c23,0,41.7-18.7,41.7-41.7	C168.9,51.3,150.2,32.6,127.3,32.6z"/>
	<circle fill="#676767" cx="127.3" cy="74.3" r="27.5"/>
	<path fill="#676767" d="M127.3,132.3C64,132.3,13.9,82,11.8,79.9l-5.5-5.6l5.5-5.6c2.1-2.1,52.2-52.4,115.4-52.4 c63.2,0,113.3,50.3,115.4,52.4l5.5,5.6l-5.5,5.6C240.6,82,190.5,132.3,127.3,132.3z M29.4,74.3c14.5,12.6,53.3,42,97.9,42	c44.6,0,83.3-29.4,97.9-42c-14.6-12.6-53.3-42-97.9-42C82.6,32.3,43.9,61.7,29.4,74.3z"/>
</g>
<polygon fill="#FFFFFF" points="136.8,54 139.5,59.4 145.5,60.3 141.2,64.5 142.2,70.4 136.8,67.6 131.5,70.4 132.5,64.5 128.2,60.3 134.2,59.4 "/>
</svg>
